<?xml version="1.0" encoding="UTF-8" standalone="no"?>
<!DOCTYPE svg PUBLIC "-//W3C//DTD SVG 1.1//EN" "http://www.w3.org/Graphics/SVG/1.1/DTD/svg11.dtd">
<svg width="100%" height="100%" viewBox="0 0 200 200" version="1.1" xmlns="http://www.w3.org/2000/svg" xmlns:xlink="http://www.w3.org/1999/xlink" xml:space="preserve" xmlns:serif="http://www.serif.com/" style="fill-rule:evenodd;clip-rule:evenodd;stroke-linejoin:round;stroke-miterlimit:2;">
    <g transform="matrix(1,0,0,1,-2.3106,-28.6018)">
        <path d="M63.794,157.793C62.68,158.097 61.11,158.375 59.084,158.628C57.058,158.882 54.931,159.008 52.702,159.008C47.942,159.008 44.624,158.198 42.75,156.577C40.876,154.956 39.939,152.019 39.939,147.765L39.939,65.565C41.054,65.363 42.649,65.109 44.725,64.806C46.802,64.502 48.853,64.35 50.879,64.35C55.437,64.35 58.729,65.109 60.755,66.629C62.781,68.148 63.794,71.136 63.794,75.593L63.794,102.335L96.461,102.335L96.461,65.565C97.575,65.363 99.171,65.109 101.247,64.806C103.324,64.502 105.425,64.35 107.553,64.35C112.009,64.35 115.251,65.16 117.277,66.781C119.303,68.402 120.315,71.44 120.315,75.897L120.315,157.793C119.201,158.097 117.631,158.375 115.605,158.628C113.579,158.882 111.452,159.008 109.224,159.008C104.463,159.008 101.146,158.198 99.272,156.577C97.398,154.956 96.461,152.019 96.461,147.765L96.461,121.175L63.794,121.175L63.794,157.793Z" style="fill:rgb(0,0,0);fill-rule:nonzero;"/>
    </g>
    <g transform="matrix(1.41102,0,0,1.41102,-10.9666,-84.6488)">
        <path d="M37.199,174.399C37.199,175.615 36.753,176.565 35.86,177.249C34.967,177.933 33.674,178.275 31.983,178.275C31.261,178.275 30.596,178.213 29.988,178.09C29.38,177.966 28.862,177.805 28.435,177.605C28.007,177.406 27.675,177.178 27.437,176.921C27.2,176.665 27.081,176.403 27.081,176.137C27.081,175.909 27.143,175.691 27.266,175.482C27.39,175.273 27.575,175.092 27.822,174.94C28.335,175.32 28.933,175.657 29.618,175.952C30.302,176.247 31.081,176.394 31.955,176.394C33.931,176.394 34.919,175.729 34.919,174.399C34.919,173.315 34.264,172.612 32.952,172.289L30.587,171.662C29.428,171.358 28.582,170.916 28.05,170.337C27.518,169.757 27.252,169.012 27.252,168.099C27.252,167.605 27.352,167.13 27.551,166.674C27.751,166.218 28.059,165.819 28.477,165.477C28.895,165.135 29.413,164.864 30.031,164.665C30.648,164.465 31.375,164.366 32.211,164.366C33.541,164.366 34.615,164.56 35.432,164.95C36.249,165.339 36.658,165.791 36.658,166.304C36.658,166.551 36.596,166.769 36.473,166.959C36.349,167.149 36.183,167.292 35.974,167.387C35.632,167.159 35.147,166.912 34.52,166.646C33.893,166.38 33.152,166.247 32.297,166.247C31.442,166.247 30.762,166.408 30.259,166.731C29.755,167.054 29.504,167.51 29.504,168.099C29.504,168.536 29.646,168.907 29.931,169.211C30.216,169.515 30.691,169.743 31.356,169.895L33.323,170.38C34.615,170.703 35.584,171.183 36.23,171.819C36.876,172.456 37.199,173.315 37.199,174.399Z" style="fill:tomato;fill-rule:nonzero;"/>
        <path d="M45.152,178.275C43.822,178.275 42.743,177.98 41.917,177.391C41.09,176.802 40.677,175.824 40.677,174.456L40.677,160.917C40.772,160.879 40.919,160.836 41.119,160.788C41.318,160.741 41.532,160.717 41.76,160.717C42.558,160.717 42.957,161.059 42.957,161.743L42.957,165.021L47.631,165.021C47.688,165.116 47.745,165.244 47.802,165.406C47.859,165.567 47.888,165.743 47.888,165.933C47.888,166.579 47.603,166.902 47.033,166.902L42.957,166.902L42.957,174.313C42.957,175.073 43.171,175.61 43.598,175.924C44.026,176.237 44.629,176.394 45.408,176.394C45.731,176.394 46.092,176.337 46.491,176.223C46.89,176.109 47.223,175.976 47.489,175.824C47.603,175.938 47.707,176.08 47.802,176.251C47.897,176.422 47.945,176.622 47.945,176.85C47.945,177.268 47.698,177.61 47.204,177.876C46.71,178.142 46.026,178.275 45.152,178.275Z" style="fill:tomato;fill-rule:nonzero;"/>
        <path d="M53.532,177.847C53.437,177.885 53.294,177.928 53.104,177.976C52.914,178.023 52.705,178.047 52.477,178.047C51.66,178.047 51.251,177.705 51.251,177.021L51.251,167.358C51.251,166.921 51.332,166.575 51.494,166.318C51.655,166.061 51.926,165.81 52.306,165.563C52.8,165.24 53.47,164.959 54.315,164.722C55.161,164.484 56.116,164.366 57.18,164.366C58.7,164.366 59.46,164.746 59.46,165.506C59.46,165.696 59.432,165.871 59.375,166.033C59.318,166.194 59.242,166.332 59.147,166.446C58.957,166.408 58.71,166.37 58.406,166.332C58.102,166.294 57.798,166.275 57.494,166.275C56.619,166.275 55.85,166.365 55.185,166.546C54.52,166.727 53.969,166.94 53.532,167.187L53.532,177.847Z" style="fill:tomato;fill-rule:nonzero;"/>
        <path d="M66.7,176.422C67.498,176.422 68.158,176.342 68.681,176.18C69.204,176.019 69.579,175.862 69.807,175.71L69.807,171.577L66.272,171.947C65.284,172.042 64.553,172.266 64.078,172.617C63.603,172.969 63.365,173.486 63.365,174.171C63.365,174.893 63.641,175.448 64.192,175.838C64.743,176.228 65.579,176.422 66.7,176.422ZM66.671,164.366C68.325,164.366 69.636,164.736 70.605,165.477C71.574,166.218 72.059,167.387 72.059,168.983L72.059,175.738C72.059,176.156 71.978,176.475 71.816,176.693C71.655,176.912 71.412,177.116 71.089,177.306C70.633,177.572 70.03,177.805 69.28,178.004C68.529,178.204 67.669,178.304 66.7,178.304C64.914,178.304 63.531,177.952 62.553,177.249C61.574,176.546 61.085,175.529 61.085,174.199C61.085,172.945 61.493,172 62.311,171.363C63.128,170.726 64.277,170.332 65.759,170.18L69.807,169.781L69.807,168.983C69.807,168.033 69.522,167.339 68.952,166.902C68.382,166.465 67.612,166.247 66.643,166.247C65.845,166.247 65.094,166.361 64.391,166.589C63.688,166.817 63.061,167.073 62.51,167.358C62.358,167.225 62.22,167.073 62.097,166.902C61.973,166.731 61.911,166.541 61.911,166.332C61.911,166.066 61.978,165.848 62.111,165.677C62.244,165.506 62.453,165.344 62.738,165.192C63.251,164.926 63.84,164.722 64.505,164.579C65.17,164.437 65.892,164.366 66.671,164.366Z" style="fill:tomato;fill-rule:nonzero;"/>
        <path d="M85.341,169.325C85.341,168.261 85.042,167.482 84.443,166.988C83.845,166.494 83.042,166.247 82.035,166.247C81.275,166.247 80.6,166.342 80.011,166.532C79.422,166.722 78.918,166.94 78.5,167.187L78.5,177.847C78.405,177.885 78.263,177.928 78.073,177.976C77.883,178.023 77.674,178.047 77.446,178.047C76.629,178.047 76.22,177.705 76.22,177.021L76.22,167.301C76.22,166.902 76.301,166.575 76.462,166.318C76.624,166.061 76.904,165.81 77.303,165.563C77.797,165.259 78.453,164.983 79.27,164.736C80.087,164.489 81.009,164.366 82.035,164.366C83.764,164.366 85.127,164.755 86.125,165.534C87.122,166.313 87.621,167.539 87.621,169.211L87.621,177.847C87.526,177.885 87.379,177.928 87.179,177.976C86.98,178.023 86.776,178.047 86.567,178.047C85.75,178.047 85.341,177.705 85.341,177.021L85.341,169.325Z" style="fill:tomato;fill-rule:nonzero;"/>
        <path d="M100.704,176.536C100.381,176.802 99.939,177.03 99.379,177.22C98.818,177.41 98.148,177.505 97.369,177.505C96.533,177.505 95.745,177.387 95.003,177.149C94.262,176.912 93.612,176.532 93.051,176.009C92.49,175.486 92.044,174.807 91.711,173.971C91.379,173.135 91.213,172.118 91.213,170.921C91.213,169.838 91.374,168.888 91.697,168.071C92.02,167.254 92.471,166.57 93.051,166.019C93.631,165.468 94.319,165.054 95.118,164.779C95.916,164.503 96.799,164.366 97.768,164.366C98.642,164.366 99.445,164.475 100.177,164.693C100.908,164.912 101.521,165.183 102.015,165.506C102.3,165.696 102.533,165.909 102.714,166.147C102.894,166.384 102.984,166.674 102.984,167.016L102.984,178.475C102.984,179.425 102.828,180.227 102.514,180.883C102.201,181.539 101.763,182.071 101.203,182.479C100.642,182.888 99.982,183.187 99.222,183.377C98.462,183.567 97.645,183.662 96.771,183.662C95.802,183.662 94.98,183.562 94.305,183.363C93.631,183.163 93.17,182.988 92.923,182.835C92.353,182.512 92.068,182.104 92.068,181.61C92.068,181.344 92.129,181.121 92.253,180.94C92.376,180.76 92.533,180.622 92.723,180.527C93.122,180.831 93.683,181.111 94.405,181.368C95.127,181.624 95.916,181.752 96.771,181.752C98.044,181.752 99.018,181.482 99.692,180.94C100.367,180.398 100.704,179.529 100.704,178.332L100.704,176.536ZM97.626,175.624C98.386,175.624 99.008,175.505 99.493,175.268C99.977,175.03 100.381,174.76 100.704,174.456L100.704,167.045C100.381,166.836 99.977,166.651 99.493,166.489C99.008,166.327 98.433,166.247 97.768,166.247C96.476,166.247 95.445,166.636 94.676,167.415C93.906,168.194 93.521,169.354 93.521,170.893C93.521,171.748 93.626,172.475 93.835,173.073C94.044,173.672 94.334,174.161 94.704,174.541C95.075,174.921 95.512,175.197 96.015,175.368C96.519,175.539 97.056,175.624 97.626,175.624Z" style="fill:tomato;fill-rule:nonzero;"/>
        <path d="M108.827,172.66C109.341,175.149 110.975,176.394 113.73,176.394C114.528,176.394 115.25,176.261 115.896,175.995C116.542,175.729 117.055,175.444 117.435,175.14C117.891,175.406 118.119,175.767 118.119,176.223C118.119,176.489 118.001,176.745 117.763,176.992C117.526,177.239 117.203,177.458 116.794,177.648C116.386,177.838 115.91,177.99 115.369,178.104C114.827,178.218 114.243,178.275 113.616,178.275C111.412,178.275 109.668,177.676 108.386,176.479C107.103,175.282 106.462,173.534 106.462,171.235C106.462,170.152 106.618,169.187 106.932,168.342C107.246,167.496 107.683,166.779 108.243,166.19C108.804,165.601 109.474,165.149 110.253,164.836C111.032,164.522 111.877,164.366 112.789,164.366C113.644,164.366 114.433,164.508 115.155,164.793C115.877,165.078 116.5,165.482 117.022,166.004C117.545,166.527 117.953,167.145 118.248,167.857C118.542,168.57 118.69,169.354 118.69,170.209C118.69,170.627 118.595,170.926 118.404,171.106C118.214,171.287 117.948,171.396 117.606,171.434L108.827,172.66ZM112.761,166.218C111.602,166.218 110.642,166.622 109.882,167.43C109.122,168.237 108.723,169.392 108.685,170.893L116.523,169.81C116.428,168.764 116.062,167.905 115.426,167.23C114.789,166.556 113.901,166.218 112.761,166.218Z" style="fill:tomato;fill-rule:nonzero;"/>
        <path d="M124.276,177.847C124.181,177.885 124.039,177.928 123.849,177.976C123.659,178.023 123.45,178.047 123.221,178.047C122.404,178.047 121.996,177.705 121.996,177.021L121.996,167.358C121.996,166.921 122.077,166.575 122.238,166.318C122.4,166.061 122.67,165.81 123.05,165.563C123.545,165.24 124.214,164.959 125.06,164.722C125.906,164.484 126.86,164.366 127.924,164.366C129.445,164.366 130.205,164.746 130.205,165.506C130.205,165.696 130.176,165.871 130.119,166.033C130.062,166.194 129.986,166.332 129.891,166.446C129.701,166.408 129.454,166.37 129.15,166.332C128.846,166.294 128.542,166.275 128.238,166.275C127.364,166.275 126.594,166.365 125.929,166.546C125.264,166.727 124.713,166.94 124.276,167.187L124.276,177.847Z" style="fill:tomato;fill-rule:nonzero;"/>
    </g>
    <path d="M200,0L0,0L0,200L200,200L200,0ZM184,16L184,184L16,184L16,16L184,16Z" style="fill:rgb(0,0,0);"/>
    <g transform="matrix(1,0,0,1,-2.3106,-28.6018)">
        <path d="M163.314,157.793C162.301,158.097 160.883,158.375 159.06,158.628C157.237,158.882 155.211,159.008 152.982,159.008C148.424,159.008 145.158,158.274 143.182,156.805C141.207,155.336 140.22,152.475 140.22,148.221L140.22,85.773C141.232,85.469 142.651,85.166 144.474,84.862C146.297,84.558 148.323,84.406 150.551,84.406C155.11,84.406 158.376,85.166 160.352,86.685C162.327,88.204 163.314,91.091 163.314,95.345L163.314,157.793ZM138.852,63.894C138.852,60.45 140.042,57.512 142.423,55.081C144.803,52.65 147.918,51.435 151.767,51.435C155.616,51.435 158.731,52.65 161.111,55.081C163.492,57.512 164.682,60.45 164.682,63.894C164.682,67.439 163.492,70.427 161.111,72.858C158.731,75.289 155.616,76.505 151.767,76.505C147.918,76.505 144.803,75.289 142.423,72.858C140.042,70.427 138.852,67.439 138.852,63.894Z" style="fill:rgb(0,0,0);fill-rule:nonzero;"/>
    </g>
</svg>
